<svg xmlns="http://www.w3.org/2000/svg" viewBox="0 0 96 96" role="img" aria-label="LOOM mark">
  <rect x="18" y="10" width="12" height="30" fill="#F1F4F2"/>
  <rect x="18" y="56" width="12" height="30" fill="#F1F4F2"/>
  <rect x="42" y="10" width="12" height="6"  fill="#F1F4F2"/>
  <rect x="42" y="32" width="12" height="32" fill="#F1F4F2"/>
  <rect x="42" y="80" width="12" height="6"  fill="#F1F4F2"/>
  <rect x="66" y="10" width="12" height="30" fill="#F1F4F2"/>
  <rect x="66" y="56" width="12" height="30" fill="#F1F4F2"/>
  <rect x="10" y="18" width="6"  height="12" fill="#F1F4F2"/>
  <rect x="32" y="18" width="32" height="12" fill="#F1F4F2"/>
  <rect x="80" y="18" width="6"  height="12" fill="#F1F4F2"/>
  <rect x="10" y="42" width="30" height="12" fill="#FF4A00"/>
  <rect x="56" y="42" width="30" height="12" fill="#FF4A00"/>
  <rect x="10" y="66" width="6"  height="12" fill="#F1F4F2"/>
  <rect x="32" y="66" width="32" height="12" fill="#F1F4F2"/>
  <rect x="80" y="66" width="6"  height="12" fill="#F1F4F2"/>
</svg>
