<svg xmlns="http://www.w3.org/2000/svg" viewBox="0 0 356 96" role="img" aria-label="LOOM">
  <g>
  <rect x="18" y="10" width="12" height="30" fill="#0F1A1C"/>
  <rect x="18" y="56" width="12" height="30" fill="#0F1A1C"/>
  <rect x="42" y="10" width="12" height="6"  fill="#0F1A1C"/>
  <rect x="42" y="32" width="12" height="32" fill="#0F1A1C"/>
  <rect x="42" y="80" width="12" height="6"  fill="#0F1A1C"/>
  <rect x="66" y="10" width="12" height="30" fill="#0F1A1C"/>
  <rect x="66" y="56" width="12" height="30" fill="#0F1A1C"/>
  <rect x="10" y="18" width="6"  height="12" fill="#0F1A1C"/>
  <rect x="32" y="18" width="32" height="12" fill="#0F1A1C"/>
  <rect x="80" y="18" width="6"  height="12" fill="#0F1A1C"/>
  <rect x="10" y="42" width="30" height="12" fill="#FF4A00"/>
  <rect x="56" y="42" width="30" height="12" fill="#FF4A00"/>
  <rect x="10" y="66" width="6"  height="12" fill="#0F1A1C"/>
  <rect x="32" y="66" width="32" height="12" fill="#0F1A1C"/>
  <rect x="80" y="66" width="6"  height="12" fill="#0F1A1C"/>
  </g>
  <g fill="#0F1A1C">
    <rect x="112" y="18" width="12" height="60"/>
    <rect x="112" y="66" width="34" height="12"/>
    <rect x="158" y="18" width="12" height="60"/>
    <rect x="186" y="18" width="12" height="60"/>
    <rect x="158" y="18" width="40" height="12"/>
    <rect x="158" y="66" width="40" height="12"/>
    <rect x="210" y="18" width="12" height="60"/>
    <rect x="238" y="18" width="12" height="60"/>
    <rect x="210" y="18" width="40" height="12"/>
    <rect x="210" y="66" width="40" height="12"/>
    <rect x="262" y="18" width="12" height="60"/>
    <rect x="298" y="18" width="12" height="60"/>
    <rect x="262" y="18" width="48" height="12"/>
    <rect x="280" y="30" width="12" height="20"/>
  </g>
  <rect x="322" y="66" width="12" height="12" fill="#FF4A00"/>
</svg>
